<svg xmlns="http://www.w3.org/2000/svg" viewBox="0 0 30.72 30.72"><defs><style>.cls-1{fill:#515658;}.cls-2{fill:#312d2d;}.cls-3{fill:#cbca22;}</style></defs><g id="Capa_2" data-name="Capa 2"><g id="Capa_1-2" data-name="Capa 1"><circle class="cls-1" cx="15.36" cy="15.36" r="15.36"/><path class="cls-2" d="M20.46,5.28H18V3.52a.42.42,0,0,0-.42-.43H13.1a.43.43,0,0,0-.43.43V5.28H10.25a2,2,0,0,0-2,2V25a2,2,0,0,0,2,2H20.46a2,2,0,0,0,2.05-2V7.32A2,2,0,0,0,20.46,5.28ZM20.59,25a.12.12,0,0,1-.13.13H10.23A.12.12,0,0,1,10.1,25V7.32a.12.12,0,0,1,.13-.12H20.44a.12.12,0,0,1,.12.12V25Z"/><path class="cls-3" d="M19.2,19.9H11.49c-.13,0-.23.13-.23.3v3.46c0,.17.1.3.23.3h7.74a.27.27,0,0,0,.23-.3V20.2C19.43,20,19.33,19.9,19.2,19.9Z"/><path class="cls-2" d="M19.2,14.35H11.49c-.13,0-.23.14-.23.3v3.46c0,.17.1.3.23.3h7.74a.27.27,0,0,0,.23-.3V14.65C19.43,14.49,19.33,14.35,19.2,14.35Z"/><path class="cls-2" d="M19.2,8.8H11.49c-.13,0-.23.14-.23.31v3.45c0,.17.1.31.23.31h7.74c.12,0,.23-.14.23-.31V9.11C19.43,8.94,19.33,8.8,19.2,8.8Z"/></g></g></svg>