<svg xmlns="http://www.w3.org/2000/svg" viewBox="0 0 30.72 30.72"><defs><style>.cls-1{fill:#cbca22;}.cls-2{fill:#fff;}</style></defs><g id="Capa_2" data-name="Capa 2"><g id="Capa_1-2" data-name="Capa 1"><circle class="cls-1" cx="15.36" cy="15.36" r="15.36"/><path class="cls-2" d="M10.06,25.29a4.63,4.63,0,0,1-4.64-4.63,4.68,4.68,0,0,1,1.36-3.28L11,13.17a4.63,4.63,0,0,1,6.56,0,1.3,1.3,0,0,1,.38,1,1.33,1.33,0,0,1-.38.84,1.36,1.36,0,0,1-1.86,0,2,2,0,0,0-2.81,0L8.65,19.25a2,2,0,1,0,2.81,2.82h0L14,19.56a.34.34,0,0,1,.36-.07,5.75,5.75,0,0,0,2.12.41h.13a.34.34,0,0,1,.34.33.37.37,0,0,1-.1.24l-3.48,3.47A4.57,4.57,0,0,1,10.06,25.29Z"/><path class="cls-2" d="M16.46,18.91h-.25l-.49-.05-.4-.08-.2-.06-.21-.06-.21-.08-.21-.09a4.9,4.9,0,0,1-1.33-.93,1.33,1.33,0,0,1-.38-1A1.31,1.31,0,0,1,15,15.69a2,2,0,0,0,2.81,0l1.09-1.08,0,0,3.1-3.1a2,2,0,1,0-2.81-2.81l-2.49,2.49a.34.34,0,0,1-.36.07,5.75,5.75,0,0,0-2.12-.41h-.12a.33.33,0,0,1-.31-.2.32.32,0,0,1,.07-.37l3.47-3.47a4.64,4.64,0,0,1,6.56,6.56l-4.22,4.21a4.55,4.55,0,0,1-2.15,1.22h0l-.19,0-.1,0-.23,0H16.9l-.24,0Z"/></g></g></svg>