<svg xmlns="http://www.w3.org/2000/svg" viewBox="0 0 31.48 9.67"><defs><style>.cls-1{fill:#cbca22;}</style></defs><g id="Capa_2" data-name="Capa 2"><g id="Capa_1-2" data-name="Capa 1"><path class="cls-1" d="M4.08,1.2a3.27,3.27,0,0,1,.4.91,3.88,3.88,0,0,1,.14,1,6.43,6.43,0,0,1-.14,1.32,3.61,3.61,0,0,1-.4.92,2.52,2.52,0,0,1-.74.75,1.69,1.69,0,0,1-.88.26h-1V8.88a.69.69,0,0,1-.21.51.72.72,0,0,1-.52.21.69.69,0,0,1-.51-.21A.69.69,0,0,1,0,8.88v-8A.66.66,0,0,1,.1.55.69.69,0,0,1,.35.29.77.77,0,0,1,.74.18H2.46a1.69,1.69,0,0,1,.88.26,2.45,2.45,0,0,1,.74.76M2.86,4.6a3,3,0,0,0,.23-.55,5.5,5.5,0,0,0,.08-.91,2.57,2.57,0,0,0-.08-.62A2.53,2.53,0,0,0,2.86,2a1.26,1.26,0,0,0-.24-.26.33.33,0,0,0-.16-.08h-1V4.94h1a.3.3,0,0,0,.16-.07,1.73,1.73,0,0,0,.24-.27"/><path class="cls-1" d="M7.61,2.24a.69.69,0,0,1,.52.21A.72.72,0,0,1,8.34,3V8.88a.69.69,0,0,1-.21.51.69.69,0,0,1-.52.21.72.72,0,0,1-.72-.72V3a.72.72,0,0,1,.21-.52.69.69,0,0,1,.51-.21"/><path class="cls-1" d="M31.47,7.37a2,2,0,0,1-.06.46,2.92,2.92,0,0,1-.2.56,1.9,1.9,0,0,1-.37.55,2.23,2.23,0,0,1-.61.44,2.11,2.11,0,0,1-1,.22,2,2,0,0,1-1-.22,2.33,2.33,0,0,1-.6-.44,2.22,2.22,0,0,1-.37-.57A3.71,3.71,0,0,1,27,7.8,3.13,3.13,0,0,1,27,7.31V.9a.7.7,0,0,1,.21-.52.72.72,0,0,1,1,0,.71.71,0,0,1,.22.52V7.27a.93.93,0,0,0,0,.23c0,.08,0,.16.07.25a.74.74,0,0,0,.13.21l.16.11a.68.68,0,0,0,.4.08.82.82,0,0,0,.44-.08L29.79,8A.86.86,0,0,0,30,7.52a3.18,3.18,0,0,0,0-.36v0h0V.91a.73.73,0,0,1,.21-.52.72.72,0,0,1,.52-.21.69.69,0,0,1,.51.21.73.73,0,0,1,.21.52V7.1c0,.05,0,.14,0,.27"/><path class="cls-1" d="M24.64,9.12a.73.73,0,0,1-.72.5.7.7,0,0,1-.38-.1.71.71,0,0,1-.28-.31l-1.83-3-.57.91V8.93a.73.73,0,0,1-.22.52.75.75,0,0,1-1.06,0,.72.72,0,0,1-.21-.52v-8a.72.72,0,0,1,.21-.53.75.75,0,0,1,1.06,0,.73.73,0,0,1,.22.53V4.28l2-3.92A.72.72,0,0,1,23.35,0a.76.76,0,0,1,.57.09.72.72,0,0,1,.34.46.69.69,0,0,1-.1.56L22.33,4.72l2.26,3.82a.78.78,0,0,1,.05.58"/><path class="cls-1" d="M17,9.12a.7.7,0,0,1-.38.43.74.74,0,0,1-.34.07.7.7,0,0,1-.38-.1.63.63,0,0,1-.27-.31l-1.84-3-.57.91V8.93a.75.75,0,0,1-1.49,0v-8A.69.69,0,0,1,12,.39a.74.74,0,0,1,1,0,.69.69,0,0,1,.22.53V4.28l2-3.92A.72.72,0,0,1,15.72,0a.76.76,0,0,1,.57.09.72.72,0,0,1,.34.46.66.66,0,0,1-.1.56L14.71,4.72,17,8.54a.74.74,0,0,1,.05.58"/><circle class="cls-1" cx="7.61" cy="0.9" r="0.73"/></g></g></svg>